<!-- Generated by IcoMoon.io -->
<svg version="1.1" xmlns="http://www.w3.org/2000/svg" width="32" height="32" viewBox="0 0 32 32">
<title>envelope</title>
<path fill="#757575" d="M29.014 4h-26.013c-1.655 0-3.002 1.347-3.002 3.002v18.009c0 1.655 1.347 3.002 3.002 3.002h26.013c1.655 0 3.002-1.347 3.002-3.002v-18.009c0-1.655-1.347-3.002-3.002-3.002zM29.014 6.001c0.136 0 0.266 0.028 0.384 0.078l-13.391 11.606-13.391-11.606c0.113-0.049 0.245-0.078 0.384-0.078h26.013zM29.014 26.011h-26.013c-0.553 0-1-0.448-1-1v0-16.818l13.351 11.572c0.175 0.152 0.405 0.245 0.656 0.245s0.482-0.093 0.657-0.246l-0.001 0.001 13.351-11.572v16.818c0 0.553-0.448 1-1 1v0z"></path>
</svg>
