<!-- Generated by IcoMoon.io -->
<svg version="1.1" xmlns="http://www.w3.org/2000/svg" width="32" height="32" viewBox="0 0 32 32">
<title>smartphone</title>
<path fill="#757575" d="M23.013 0h-14.007c-1.655 0-3.002 1.347-3.002 3.002v26.013c0 1.655 1.347 3.002 3.002 3.002h14.007c1.655 0 3.002-1.347 3.002-3.002v-26.013c0-1.655-1.347-3.002-3.002-3.002zM9.006 2.001h14.007c0.553 0 1 0.448 1 1.001v0 21.010h-16.008v-21.010c0-0.553 0.448-1 1.001-1v0zM23.013 30.015h-14.007c-0.553 0-1.001-0.448-1.001-1v0-3.002h16.008v3.002c0 0.553-0.448 1-1 1v0z"></path>
<path fill="#757575" d="M10.715 27.492c0.18 0.164 0.293 0.399 0.293 0.66s-0.113 0.497-0.292 0.66l-0.001 0.001c-0.186 0.17-0.435 0.275-0.708 0.275s-0.522-0.104-0.709-0.275l0.001 0.001c-0.18-0.164-0.293-0.399-0.293-0.66s0.113-0.497 0.292-0.66l0.001-0.001c0.186-0.17 0.435-0.275 0.708-0.275s0.522 0.104 0.709 0.275l-0.001-0.001z"></path>
</svg>
